<?xml version="1.0" encoding="UTF-8"?>
<svg id="b" data-name="Слой 2" xmlns="http://www.w3.org/2000/svg" viewBox="0 0 25.96 24.98">
  <defs>
    <style>
      .d {
        fill: #00a0e4;
      }
    </style>
  </defs>
  <g id="c" data-name="Слой 1">
    <g>
      <path class="d" d="m12.98,9.51c-.92,0-1.67-.75-1.67-1.68V1.68c0-.93.75-1.68,1.67-1.68s1.67.75,1.67,1.68v6.15c0,.93-.75,1.68-1.67,1.68"/>
      <path class="d" d="m9.08,12.36c-.28.88-1.23,1.36-2.1,1.08l-5.82-1.9c-.88-.29-1.36-1.23-1.07-2.11.28-.88,1.23-1.36,2.1-1.08l5.82,1.9c.88.29,1.36,1.23,1.07,2.11"/>
      <path class="d" d="m16.88,12.36c.29.88,1.23,1.36,2.1,1.08l5.82-1.9c.88-.29,1.36-1.23,1.07-2.11-.28-.88-1.23-1.36-2.1-1.08l-5.82,1.9c-.88.29-1.36,1.23-1.07,2.11"/>
      <path class="d" d="m5.01,24.66c-.75-.54-.91-1.59-.37-2.34l3.6-4.98c.54-.75,1.59-.92,2.33-.37.75.54.91,1.59.37,2.34l-3.6,4.98c-.54.75-1.59.92-2.33.37"/>
      <path class="d" d="m20.95,24.66c.75-.54.91-1.59.37-2.34l-3.6-4.98c-.54-.75-1.59-.92-2.33-.37-.75.54-.91,1.59-.37,2.34l3.6,4.98c.54.75,1.59.92,2.33.37"/>
    </g>
  </g>
</svg>